<svg width="95" height="95" viewBox="0 0 95 95" fill="none" xmlns="http://www.w3.org/2000/svg">
<path d="M64.0359 82.3828C58.8708 84.8406 53.2201 86.1087 47.5 86.0938C26.22 86.0938 8.90625 68.78 8.90625 47.5C8.90625 38.3711 12.0442 29.7498 17.8125 22.8356V29.6875H23.75V11.875H5.93751V17.8125H14.3747C7.01415 25.9462 2.94775 36.5303 2.96875 47.5C2.96875 72.0545 22.9455 92.0313 47.5 92.0313C54.1036 92.048 60.6268 90.5831 66.5891 87.7444L64.0359 82.3828Z" fill="#D95806"/>
<path d="M62.3438 26.7188C52.9625 26.7188 45.2705 34.013 44.5966 43.225C41.3327 40.2472 37.0744 38.5955 32.6562 38.5938H20.7812V50.4688C20.7812 60.2923 28.7731 68.2812 38.5938 68.2812H44.5312V80.1562H50.4688V56.4062H56.4062C66.2269 56.4062 74.2188 48.4173 74.2188 38.5938V26.7188H62.3438ZM38.5938 62.3438C32.0447 62.3438 26.7188 57.0178 26.7188 50.4688V44.5312H32.6562C39.2053 44.5312 44.5312 49.8572 44.5312 56.4062V58.1459L37.7239 51.3386L33.5261 55.5364L40.3334 62.3438H38.5938ZM68.2812 38.5938C68.2812 45.1428 62.9553 50.4688 56.4062 50.4688H54.6666L61.4739 43.6614L57.2761 39.4636L50.4688 46.2709V44.5312C50.4688 37.9822 55.7947 32.6562 62.3438 32.6562H68.2812V38.5938Z" fill="#D95806"/>
<path d="M92.0313 47.4999C92.0313 22.9454 72.0545 2.96865 47.5 2.96865C40.8964 2.95188 34.3732 4.41681 28.4109 7.25552L30.9641 12.6171C36.1293 10.1593 41.7799 8.8912 47.5 8.90615C68.78 8.90615 86.0938 26.2199 86.0938 47.4999C86.0938 56.6288 82.9558 65.2501 77.1875 72.1643V65.3124H71.25V83.1249H89.0625V77.1874H80.6253C87.9859 69.0537 92.0523 58.4696 92.0313 47.4999Z" fill="#D95806"/>
</svg>
