<svg width="84" height="84" viewBox="0 0 84 84" fill="none" xmlns="http://www.w3.org/2000/svg">
<path d="M23.17 37.765C28.21 47.67 36.33 55.755 46.235 60.83L53.935 53.13C54.88 52.185 56.28 51.87 57.505 52.29C61.425 53.585 65.66 54.285 70 54.285C71.925 54.285 73.5 55.86 73.5 57.785V70C73.5 71.925 71.925 73.5 70 73.5C37.135 73.5 10.5 46.865 10.5 14C10.5 12.075 12.075 10.5 14 10.5H26.25C28.175 10.5 29.75 12.075 29.75 14C29.75 18.375 30.45 22.575 31.745 26.495C32.13 27.72 31.85 29.085 30.87 30.065L23.17 37.765Z" fill="#D95806"/>
</svg>
