<svg width="87" height="74" viewBox="0 0 87 74" fill="none" xmlns="http://www.w3.org/2000/svg">
<path d="M12.5938 50.625H14.5781L17.5 58.9766L20.4219 50.625H22.4062L18.2969 62H16.7031L12.5938 50.625ZM11.5234 50.625H13.5L13.8594 58.7656V62H11.5234V50.625ZM21.5 50.625H23.4844V62H21.1406V58.7656L21.5 50.625ZM29.2891 62.1562C28.6328 62.1562 28.0443 62.0521 27.5234 61.8438C27.0026 61.6302 26.5599 61.3359 26.1953 60.9609C25.8359 60.5859 25.5599 60.151 25.3672 59.6562C25.1745 59.1562 25.0781 58.625 25.0781 58.0625V57.75C25.0781 57.1094 25.1693 56.5234 25.3516 55.9922C25.5339 55.4609 25.7943 55 26.1328 54.6094C26.4766 54.2188 26.8932 53.9193 27.3828 53.7109C27.8724 53.4974 28.4245 53.3906 29.0391 53.3906C29.638 53.3906 30.1693 53.4896 30.6328 53.6875C31.0964 53.8854 31.4844 54.1667 31.7969 54.5312C32.1146 54.8958 32.3542 55.3333 32.5156 55.8438C32.6771 56.349 32.7578 56.9115 32.7578 57.5312V58.4688H26.0391V56.9688H30.5469V56.7969C30.5469 56.4844 30.4896 56.2057 30.375 55.9609C30.2656 55.7109 30.099 55.513 29.875 55.3672C29.651 55.2214 29.3646 55.1484 29.0156 55.1484C28.7188 55.1484 28.4635 55.2135 28.25 55.3438C28.0365 55.474 27.862 55.6562 27.7266 55.8906C27.5964 56.125 27.4974 56.401 27.4297 56.7188C27.3672 57.0312 27.3359 57.375 27.3359 57.75V58.0625C27.3359 58.401 27.3828 58.7135 27.4766 59C27.5755 59.2865 27.7135 59.5339 27.8906 59.7422C28.0729 59.9505 28.2917 60.112 28.5469 60.2266C28.8073 60.3411 29.1016 60.3984 29.4297 60.3984C29.8359 60.3984 30.2135 60.3203 30.5625 60.1641C30.9167 60.0026 31.2214 59.7604 31.4766 59.4375L32.5703 60.625C32.3932 60.8802 32.151 61.125 31.8438 61.3594C31.5417 61.5938 31.1771 61.7865 30.75 61.9375C30.3229 62.0833 29.8359 62.1562 29.2891 62.1562ZM39.3906 53.5469H41.4297V61.7188C41.4297 62.4896 41.2578 63.1432 40.9141 63.6797C40.5755 64.2214 40.1016 64.6302 39.4922 64.9062C38.8828 65.1875 38.1745 65.3281 37.3672 65.3281C37.013 65.3281 36.638 65.2812 36.2422 65.1875C35.8516 65.0938 35.4766 64.9479 35.1172 64.75C34.763 64.5521 34.4661 64.3021 34.2266 64L35.2188 62.6719C35.4792 62.974 35.7812 63.2083 36.125 63.375C36.4688 63.5469 36.849 63.6328 37.2656 63.6328C37.6719 63.6328 38.0156 63.5573 38.2969 63.4062C38.5781 63.2604 38.7943 63.0443 38.9453 62.7578C39.0964 62.4766 39.1719 62.1354 39.1719 61.7344V55.5L39.3906 53.5469ZM33.7031 57.875V57.7109C33.7031 57.0651 33.7812 56.4792 33.9375 55.9531C34.099 55.4219 34.3255 54.9661 34.6172 54.5859C34.9141 54.2057 35.2734 53.9115 35.6953 53.7031C36.1172 53.4948 36.5938 53.3906 37.125 53.3906C37.6875 53.3906 38.1589 53.4948 38.5391 53.7031C38.9193 53.9115 39.2318 54.2083 39.4766 54.5938C39.7214 54.974 39.9115 55.4245 40.0469 55.9453C40.1875 56.4609 40.2969 57.026 40.375 57.6406V58C40.2969 58.5885 40.1797 59.1354 40.0234 59.6406C39.8672 60.1458 39.6615 60.5885 39.4062 60.9688C39.151 61.3438 38.8333 61.6354 38.4531 61.8438C38.0781 62.0521 37.6302 62.1562 37.1094 62.1562C36.5885 62.1562 36.1172 62.0495 35.6953 61.8359C35.2786 61.6224 34.9219 61.3229 34.625 60.9375C34.3281 60.5521 34.099 60.099 33.9375 59.5781C33.7812 59.0573 33.7031 58.4896 33.7031 57.875ZM35.9531 57.7109V57.875C35.9531 58.224 35.987 58.5495 36.0547 58.8516C36.1224 59.1536 36.2266 59.4219 36.3672 59.6562C36.513 59.8854 36.6927 60.0651 36.9062 60.1953C37.125 60.3203 37.3828 60.3828 37.6797 60.3828C38.0911 60.3828 38.4271 60.2969 38.6875 60.125C38.9479 59.9479 39.1432 59.7057 39.2734 59.3984C39.4036 59.0911 39.4792 58.737 39.5 58.3359V57.3125C39.4896 56.9844 39.4453 56.6901 39.3672 56.4297C39.2891 56.1641 39.1797 55.9375 39.0391 55.75C38.8984 55.5625 38.7161 55.4167 38.4922 55.3125C38.2682 55.2083 38.0026 55.1562 37.6953 55.1562C37.3984 55.1562 37.1406 55.224 36.9219 55.3594C36.7083 55.4896 36.5286 55.6693 36.3828 55.8984C36.2422 56.1276 36.1354 56.3984 36.0625 56.7109C35.9896 57.0182 35.9531 57.3516 35.9531 57.7109ZM47.7422 60.0938V56.3281C47.7422 56.0573 47.6979 55.8255 47.6094 55.6328C47.5208 55.4349 47.3828 55.2812 47.1953 55.1719C47.013 55.0625 46.776 55.0078 46.4844 55.0078C46.2344 55.0078 46.0182 55.0521 45.8359 55.1406C45.6536 55.224 45.513 55.3464 45.4141 55.5078C45.3151 55.6641 45.2656 55.849 45.2656 56.0625H43.0156C43.0156 55.7031 43.099 55.362 43.2656 55.0391C43.4323 54.7161 43.6745 54.4323 43.9922 54.1875C44.3099 53.9375 44.6875 53.7422 45.125 53.6016C45.5677 53.4609 46.0625 53.3906 46.6094 53.3906C47.2656 53.3906 47.849 53.5 48.3594 53.7188C48.8698 53.9375 49.2708 54.2656 49.5625 54.7031C49.8594 55.1406 50.0078 55.6875 50.0078 56.3438V59.9609C50.0078 60.4245 50.0365 60.8047 50.0938 61.1016C50.151 61.3932 50.2344 61.6484 50.3438 61.8672V62H48.0703C47.9609 61.7708 47.8776 61.4844 47.8203 61.1406C47.7682 60.7917 47.7422 60.4427 47.7422 60.0938ZM48.0391 56.8516L48.0547 58.125H46.7969C46.5 58.125 46.2422 58.1589 46.0234 58.2266C45.8047 58.2943 45.625 58.3906 45.4844 58.5156C45.3438 58.6354 45.2396 58.776 45.1719 58.9375C45.1094 59.099 45.0781 59.276 45.0781 59.4688C45.0781 59.6615 45.1224 59.8359 45.2109 59.9922C45.2995 60.1432 45.4271 60.263 45.5938 60.3516C45.7604 60.4349 45.9557 60.4766 46.1797 60.4766C46.5182 60.4766 46.8125 60.4089 47.0625 60.2734C47.3125 60.138 47.5052 59.9714 47.6406 59.7734C47.7812 59.5755 47.8542 59.388 47.8594 59.2109L48.4531 60.1641C48.3698 60.3776 48.2552 60.599 48.1094 60.8281C47.9688 61.0573 47.7891 61.2734 47.5703 61.4766C47.3516 61.6745 47.0885 61.8385 46.7812 61.9688C46.474 62.0938 46.1094 62.1562 45.6875 62.1562C45.151 62.1562 44.6641 62.0495 44.2266 61.8359C43.7943 61.6172 43.4505 61.3177 43.1953 60.9375C42.9453 60.5521 42.8203 60.1146 42.8203 59.625C42.8203 59.1823 42.9036 58.7891 43.0703 58.4453C43.237 58.1016 43.4818 57.8125 43.8047 57.5781C44.1328 57.3385 44.5417 57.1589 45.0312 57.0391C45.5208 56.9141 46.0885 56.8516 46.7344 56.8516H48.0391ZM60.5312 50.625V62H58.1953V50.625H60.5312ZM64.0312 50.625V52.4609H54.75V50.625H64.0312ZM68.3828 62.1562C67.7266 62.1562 67.138 62.0521 66.6172 61.8438C66.0964 61.6302 65.6536 61.3359 65.2891 60.9609C64.9297 60.5859 64.6536 60.151 64.4609 59.6562C64.2682 59.1562 64.1719 58.625 64.1719 58.0625V57.75C64.1719 57.1094 64.263 56.5234 64.4453 55.9922C64.6276 55.4609 64.888 55 65.2266 54.6094C65.5703 54.2188 65.987 53.9193 66.4766 53.7109C66.9661 53.4974 67.5182 53.3906 68.1328 53.3906C68.7318 53.3906 69.263 53.4896 69.7266 53.6875C70.1901 53.8854 70.5781 54.1667 70.8906 54.5312C71.2083 54.8958 71.4479 55.3333 71.6094 55.8438C71.7708 56.349 71.8516 56.9115 71.8516 57.5312V58.4688H65.1328V56.9688H69.6406V56.7969C69.6406 56.4844 69.5833 56.2057 69.4688 55.9609C69.3594 55.7109 69.1927 55.513 68.9688 55.3672C68.7448 55.2214 68.4583 55.1484 68.1094 55.1484C67.8125 55.1484 67.5573 55.2135 67.3438 55.3438C67.1302 55.474 66.9557 55.6562 66.8203 55.8906C66.6901 56.125 66.5911 56.401 66.5234 56.7188C66.4609 57.0312 66.4297 57.375 66.4297 57.75V58.0625C66.4297 58.401 66.4766 58.7135 66.5703 59C66.6693 59.2865 66.8073 59.5339 66.9844 59.7422C67.1667 59.9505 67.3854 60.112 67.6406 60.2266C67.901 60.3411 68.1953 60.3984 68.5234 60.3984C68.9297 60.3984 69.3073 60.3203 69.6562 60.1641C70.0104 60.0026 70.3151 59.7604 70.5703 59.4375L71.6641 60.625C71.487 60.8802 71.2448 61.125 70.9375 61.3594C70.6354 61.5938 70.2708 61.7865 69.8438 61.9375C69.4167 62.0833 68.9297 62.1562 68.3828 62.1562ZM75.5078 50V62H73.25V50H75.5078Z" fill="white"/>
<g clip-path="url(#clip0_30_92)">
<path d="M30.5234 4.01633C33.7954 2.59005 36.6318 1.28159 39.5418 0.138494C40.2003 -0.121958 41.1431 0.0206705 41.8465 0.276988C43.9611 1.04387 46.0163 1.97406 48.1063 2.81329C49.9631 3.55951 52.1492 4.00806 51.2412 6.79655C51.5193 6.94951 51.6666 7.08387 51.7198 7.05287C54.1594 5.63072 56.3496 6.7056 58.5541 7.72467C60.5827 8.66312 63.3721 9.0538 64.4478 10.6413C65.4703 12.1585 64.7463 14.9036 64.7729 17.1092C64.7893 18.4983 64.642 19.9039 64.8097 21.2723C65.0142 22.9797 64.276 23.7528 62.7893 24.3171C60.0613 25.3713 57.3987 26.6033 54.2801 27.9469C54.2801 25.9005 54.2801 24.1745 54.2801 22.4485C54.2801 20.617 54.141 18.7753 54.2801 16.9562C54.4457 14.914 53.4744 14.1016 51.4007 13.8432C51.3435 14.6018 51.2453 15.3108 51.2433 16.0178C51.231 19.9328 51.2003 23.8499 51.2699 27.765C51.2883 28.8895 50.9181 29.4579 49.8895 29.8734C46.9038 31.0785 43.959 32.3849 40.5848 33.8256V31.1984C40.5848 24.1869 40.5521 17.1774 40.6155 10.1679C40.6298 8.81401 40.2065 8.13808 38.9345 7.68746C36.7136 6.86269 34.548 5.86636 32.3639 4.93204C31.8425 4.71087 31.3455 4.42768 30.5234 4.01633Z" fill="#D95806"/>
<path d="M17 14.8251C20.409 13.2934 23.3988 11.9188 26.4254 10.6289C26.8057 10.4677 27.4151 10.6599 27.8466 10.8522C30.6503 12.0924 33.4642 13.3202 36.2004 14.699C36.7546 14.978 37.3231 15.8855 37.3333 16.5097C37.4192 22.3182 37.3947 28.1288 37.362 33.9373C37.362 34.4416 37.1943 35.2478 36.8691 35.3987C33.546 36.9511 30.1738 38.398 26.5256 40C26.5256 36.0333 26.5256 32.4448 26.5256 28.8564C26.5256 26.2663 26.4438 23.6742 26.5481 21.0904C26.6074 19.6228 26.182 18.798 24.7607 18.2482C22.2699 17.289 19.863 16.1067 17 14.8251Z" fill="#D95806"/>
</g>
<defs>
<clipPath id="clip0_30_92">
<rect width="48" height="40" fill="white" transform="translate(17)"/>
</clipPath>
</defs>
</svg>
