<svg width="98" height="98" viewBox="0 0 98 98" fill="none" xmlns="http://www.w3.org/2000/svg">
<path d="M4.08331 85.75V77.5833H93.9166V85.75H4.08331ZM16.3333 73.5C14.0875 73.5 12.1656 72.701 10.5676 71.1031C8.9697 69.5051 8.16937 67.5819 8.16665 65.3333V20.4167C8.16665 18.1708 8.96698 16.2489 10.5676 14.651C12.1683 13.0531 14.0902 12.2527 16.3333 12.25H81.6666C83.9125 12.25 85.8357 13.0503 87.4364 14.651C89.0371 16.2517 89.836 18.1736 89.8333 20.4167V65.3333C89.8333 67.5792 89.0343 69.5024 87.4364 71.1031C85.8385 72.7038 83.9152 73.5027 81.6666 73.5H16.3333ZM16.3333 65.3333H81.6666V20.4167H16.3333V65.3333Z" fill="#D95806"/>
</svg>
