<svg width="56" height="56" viewBox="0 0 56 56" fill="none" xmlns="http://www.w3.org/2000/svg">
<path d="M25.6668 44.3333H30.3335V34.5916L34.0668 38.325L37.3335 35L28.0002 25.6666L18.6668 35L21.9918 38.2666L25.6668 34.5916V44.3333ZM14.0002 51.3333C12.7168 51.3333 11.6186 50.8767 10.7055 49.9636C9.79238 49.0505 9.33505 47.9515 9.3335 46.6666V9.33329C9.3335 8.04996 9.79083 6.95174 10.7055 6.03863C11.6202 5.12551 12.7184 4.66818 14.0002 4.66663H32.6668L46.6668 18.6666V46.6666C46.6668 47.95 46.2103 49.049 45.2972 49.9636C44.3841 50.8783 43.285 51.3348 42.0002 51.3333H14.0002ZM30.3335 21H42.0002L30.3335 9.33329V21Z" fill="#D95806"/>
</svg>
