<svg width="49" height="49" viewBox="0 0 49 49" fill="none" xmlns="http://www.w3.org/2000/svg">
<path d="M15.9247 4.08337H33.0747C39.608 4.08337 44.9163 9.39171 44.9163 15.925V33.075C44.9163 36.2156 43.6687 39.2276 41.448 41.4484C39.2273 43.6691 36.2153 44.9167 33.0747 44.9167H15.9247C9.39134 44.9167 4.08301 39.6084 4.08301 33.075V15.925C4.08301 12.7844 5.33061 9.77246 7.55135 7.55172C9.77209 5.33097 12.7841 4.08337 15.9247 4.08337ZM15.5163 8.16671C13.567 8.16671 11.6975 8.94108 10.3191 10.3195C8.94071 11.6979 8.16634 13.5674 8.16634 15.5167V33.4834C8.16634 37.5463 11.4534 40.8334 15.5163 40.8334H33.483C35.4323 40.8334 37.3018 40.059 38.6802 38.6806C40.0586 37.3022 40.833 35.4327 40.833 33.4834V15.5167C40.833 11.4538 37.5459 8.16671 33.483 8.16671H15.5163ZM35.2184 11.2292C35.8953 11.2292 36.5444 11.4981 37.023 11.9767C37.5016 12.4553 37.7705 13.1044 37.7705 13.7813C37.7705 14.4581 37.5016 15.1073 37.023 15.5859C36.5444 16.0645 35.8953 16.3334 35.2184 16.3334C34.5416 16.3334 33.8924 16.0645 33.4138 15.5859C32.9352 15.1073 32.6663 14.4581 32.6663 13.7813C32.6663 13.1044 32.9352 12.4553 33.4138 11.9767C33.8924 11.4981 34.5416 11.2292 35.2184 11.2292ZM24.4997 14.2917C27.2071 14.2917 29.8036 15.3672 31.7181 17.2817C33.6325 19.1961 34.708 21.7926 34.708 24.5C34.708 27.2075 33.6325 29.804 31.7181 31.7184C29.8036 33.6329 27.2071 34.7084 24.4997 34.7084C21.7923 34.7084 19.1957 33.6329 17.2813 31.7184C15.3669 29.804 14.2913 27.2075 14.2913 24.5C14.2913 21.7926 15.3669 19.1961 17.2813 17.2817C19.1957 15.3672 21.7923 14.2917 24.4997 14.2917ZM24.4997 18.375C22.8752 18.375 21.3173 19.0203 20.1686 20.169C19.02 21.3177 18.3747 22.8756 18.3747 24.5C18.3747 26.1245 19.02 27.6824 20.1686 28.8311C21.3173 29.9797 22.8752 30.625 24.4997 30.625C26.1241 30.625 27.682 29.9797 28.8307 28.8311C29.9794 27.6824 30.6247 26.1245 30.6247 24.5C30.6247 22.8756 29.9794 21.3177 28.8307 20.169C27.682 19.0203 26.1241 18.375 24.4997 18.375Z" fill="white"/>
</svg>
