<svg width="103" height="103" viewBox="0 0 103 103" fill="none" xmlns="http://www.w3.org/2000/svg">
<g clip-path="url(#clip0_20_116)">
<path d="M51.5 8.58325C75.2029 8.58325 94.4167 27.797 94.4167 51.4999C94.4167 75.2028 75.2029 94.4166 51.5 94.4166C27.7971 94.4166 8.58334 75.2028 8.58334 51.4999C8.58334 27.797 27.7971 8.58325 51.5 8.58325ZM51.5 17.1666C42.3942 17.1666 33.6614 20.7838 27.2227 27.2226C20.7839 33.6613 17.1667 42.3942 17.1667 51.4999C17.1667 60.6057 20.7839 69.3385 27.2227 75.7773C33.6614 82.216 42.3942 85.8333 51.5 85.8333C60.6058 85.8333 69.3386 82.216 75.7774 75.7773C82.2161 69.3385 85.8334 60.6057 85.8334 51.4999C85.8334 42.3942 82.2161 33.6613 75.7774 27.2226C69.3386 20.7838 60.6058 17.1666 51.5 17.1666ZM51.5 25.7499C52.5512 25.7501 53.5658 26.136 54.3513 26.8345C55.1368 27.533 55.6387 28.4955 55.7616 29.5395L55.7917 30.0416V49.7232L67.4092 61.3407C68.1789 62.113 68.6258 63.1494 68.6591 64.2392C68.6924 65.3291 68.3096 66.3908 67.5884 67.2086C66.8673 68.0265 65.8619 68.5392 64.7764 68.6426C63.6909 68.746 62.6068 68.4323 61.7442 67.7653L61.3408 67.4091L48.4658 54.5341C47.7988 53.8665 47.3704 52.9977 47.247 52.0621L47.2083 51.4999V30.0416C47.2083 28.9034 47.6605 27.8118 48.4653 27.0069C49.2702 26.2021 50.3618 25.7499 51.5 25.7499Z" fill="#D95806"/>
</g>
<defs>
<clipPath id="clip0_20_116">
<rect width="103" height="103" fill="white"/>
</clipPath>
</defs>
</svg>
