<svg width="83" height="83" viewBox="0 0 83 83" fill="none" xmlns="http://www.w3.org/2000/svg">
<path d="M38.9062 27.1376C35.6693 28.0229 33.7188 30.5094 33.7188 32.8542C33.7188 35.1989 35.6693 37.6855 38.9062 38.5674V27.1376ZM44.0938 44.4327V55.859C47.3307 54.9772 49.2812 52.4906 49.2812 50.1459C49.2812 47.8011 47.3307 45.3146 44.0938 44.4327Z" fill="#D95806"/>
<path fill-rule="evenodd" clip-rule="evenodd" d="M76.0834 41.5C76.0834 60.6003 60.6005 76.0833 41.5001 76.0833C22.3997 76.0833 6.91675 60.6003 6.91675 41.5C6.91675 22.3996 22.3997 6.91663 41.5001 6.91663C60.6005 6.91663 76.0834 22.3996 76.0834 41.5ZM41.5001 18.1562C42.188 18.1562 42.8477 18.4295 43.3341 18.9159C43.8206 19.4023 44.0938 20.0621 44.0938 20.75V21.8463C49.7309 22.8561 54.4688 27.0925 54.4688 32.8541C54.4688 33.542 54.1956 34.2018 53.7091 34.6882C53.2227 35.1746 52.563 35.4479 51.8751 35.4479C51.1872 35.4479 50.5275 35.1746 50.041 34.6882C49.5546 34.2018 49.2813 33.542 49.2813 32.8541C49.2813 30.5094 47.3308 28.0228 44.0938 27.1375V39.1379C49.7309 40.1478 54.4688 44.3842 54.4688 50.1458C54.4688 55.9074 49.7309 60.1438 44.0938 61.1537V62.25C44.0938 62.9379 43.8206 63.5976 43.3341 64.084C42.8477 64.5704 42.188 64.8437 41.5001 64.8437C40.8122 64.8437 40.1524 64.5704 39.666 64.084C39.1796 63.5976 38.9063 62.9379 38.9063 62.25V61.1537C33.2692 60.1438 28.5313 55.9074 28.5313 50.1458C28.5313 49.4579 28.8046 48.7982 29.291 48.3117C29.7774 47.8253 30.4372 47.552 31.1251 47.552C31.813 47.552 32.4727 47.8253 32.9591 48.3117C33.4456 48.7982 33.7188 49.4579 33.7188 50.1458C33.7188 52.4905 35.6693 54.9771 38.9063 55.859V43.862C33.2692 42.8522 28.5313 38.6157 28.5313 32.8541C28.5313 27.0925 33.2692 22.8561 38.9063 21.8463V20.75C38.9063 20.0621 39.1796 19.4023 39.666 18.9159C40.1524 18.4295 40.8122 18.1562 41.5001 18.1562Z" fill="#D95806"/>
</svg>
