<svg width="75" height="75" viewBox="0 0 75 75" fill="none" xmlns="http://www.w3.org/2000/svg">
<path d="M37.5 4.6875C46.2024 4.6875 54.5484 8.14452 60.7019 14.2981C66.8555 20.4516 70.3125 28.7976 70.3125 37.5C70.3125 46.2024 66.8555 54.5484 60.7019 60.7019C54.5484 66.8555 46.2024 70.3125 37.5 70.3125C28.7976 70.3125 20.4516 66.8555 14.2981 60.7019C8.14452 54.5484 4.6875 46.2024 4.6875 37.5C4.6875 28.7976 8.14452 20.4516 14.2981 14.2981C20.4516 8.14452 28.7976 4.6875 37.5 4.6875ZM33.4125 43.9734L26.1234 36.6797C25.8621 36.4184 25.5519 36.2111 25.2105 36.0697C24.8691 35.9283 24.5031 35.8555 24.1336 35.8555C23.764 35.8555 23.3981 35.9283 23.0567 36.0697C22.7153 36.2111 22.4051 36.4184 22.1437 36.6797C21.616 37.2074 21.3195 37.9232 21.3195 38.6695C21.3195 39.4159 21.616 40.1316 22.1437 40.6594L31.425 49.9406C31.6856 50.2032 31.9956 50.4117 32.3371 50.5539C32.6786 50.6962 33.0449 50.7694 33.4148 50.7694C33.7848 50.7694 34.1511 50.6962 34.4926 50.5539C34.8341 50.4117 35.1441 50.2032 35.4047 49.9406L54.6234 30.7172C54.8882 30.457 55.0989 30.1469 55.2433 29.8048C55.3876 29.4628 55.4628 29.0955 55.4646 28.7243C55.4663 28.353 55.3945 27.9851 55.2533 27.6417C55.1121 27.2983 54.9044 26.9863 54.642 26.7236C54.3796 26.461 54.0679 26.2528 53.7247 26.1112C53.3814 25.9697 53.0136 25.8974 52.6423 25.8987C52.2711 25.9 51.9037 25.9748 51.5615 26.1187C51.2193 26.2627 50.909 26.473 50.6484 26.7375L33.4125 43.9734Z" fill="#D95806"/>
</svg>
