<svg width="80" height="80" viewBox="0 0 80 80" fill="none" xmlns="http://www.w3.org/2000/svg">
<path d="M13.3334 66.6667C11.5001 66.6667 9.93119 66.0145 8.62675 64.71C7.3223 63.4056 6.66897 61.8356 6.66675 60V20C6.66675 18.1667 7.32008 16.5978 8.62675 15.2934C9.93341 13.9889 11.5023 13.3356 13.3334 13.3334H66.6667C68.5001 13.3334 70.0701 13.9867 71.3767 15.2934C72.6834 16.6 73.3356 18.1689 73.3334 20V60C73.3334 61.8334 72.6812 63.4034 71.3767 64.71C70.0723 66.0167 68.5023 66.6689 66.6667 66.6667H13.3334ZM40.0001 43.3334L66.6667 26.6667V20L40.0001 36.6667L13.3334 20V26.6667L40.0001 43.3334Z" fill="#D95806"/>
</svg>
