<svg width="101" height="101" viewBox="0 0 101 101" fill="none" xmlns="http://www.w3.org/2000/svg">
<path d="M84.1668 8.41663H16.8335V16.8333L41.2839 35.1816C33.8635 37.6285 27.7183 42.9215 24.1988 49.8973C20.6793 56.8732 20.0736 64.961 22.5147 72.3833C23.7225 76.0601 25.6433 79.4627 28.1673 82.3965C30.6913 85.3303 33.7689 87.7376 37.2242 89.4809C40.6794 91.2242 44.4444 92.2691 48.3039 92.5559C52.1633 92.8427 56.0415 92.3658 59.7164 91.1525C65.6101 89.2153 70.7418 85.4669 74.3798 80.4417C78.0178 75.4164 79.9764 69.3709 79.9764 63.167C79.9764 56.9632 78.0178 50.9177 74.3798 45.8924C70.7418 40.8672 65.6101 37.1188 59.7164 35.1816L84.1668 16.8333V8.41663ZM62.8727 82.0625L50.5002 74.8241L38.1277 82.0625L41.4102 68.0487L30.5106 58.622L44.861 57.4016L50.5002 44.1875L56.1393 57.4016L70.4897 58.622L59.5902 68.0487L62.8727 82.0625Z" fill="#D95806"/>
</svg>
