<svg width="94" height="94" viewBox="0 0 94 94" fill="none" xmlns="http://www.w3.org/2000/svg">
<path d="M47 45.0417C44.4031 45.0417 41.9126 44.0101 40.0763 42.1738C38.24 40.3375 37.2084 37.847 37.2084 35.25C37.2084 32.6531 38.24 30.1626 40.0763 28.3263C41.9126 26.49 44.4031 25.4584 47 25.4584C49.597 25.4584 52.0875 26.49 53.9238 28.3263C55.7601 30.1626 56.7917 32.6531 56.7917 35.25C56.7917 36.5359 56.5384 37.8092 56.0464 38.9972C55.5543 40.1851 54.833 41.2646 53.9238 42.1738C53.0146 43.083 51.9351 43.8043 50.7471 44.2964C49.5592 44.7884 48.2859 45.0417 47 45.0417ZM47 7.83337C39.7287 7.83337 32.7552 10.7219 27.6135 15.8635C22.4719 21.0052 19.5834 27.9787 19.5834 35.25C19.5834 55.8125 47 86.1667 47 86.1667C47 86.1667 74.4167 55.8125 74.4167 35.25C74.4167 27.9787 71.5282 21.0052 66.3865 15.8635C61.2449 10.7219 54.2714 7.83337 47 7.83337Z" fill="#D95806"/>
</svg>
