<svg width="46" height="46" viewBox="0 0 46 46" fill="none" xmlns="http://www.w3.org/2000/svg">
<path d="M40.058 3.83337H5.94134C5.38218 3.83337 4.84591 4.0555 4.45052 4.45089C4.05514 4.84628 3.83301 5.38254 3.83301 5.94171V40.0584C3.83301 40.6175 4.05514 41.1538 4.45052 41.5492C4.84591 41.9446 5.38218 42.1667 5.94134 42.1667H24.303V27.3125H19.3197V21.5625H24.303V17.25C24.1998 16.2376 24.3193 15.2148 24.6532 14.2534C24.9871 13.292 25.5273 12.4153 26.2359 11.6848C26.9445 10.9543 27.8043 10.3877 28.7551 10.0247C29.7059 9.66164 30.7245 9.51102 31.7397 9.58337C33.2315 9.57419 34.7225 9.65099 36.2055 9.81337V14.9884H33.158C30.743 14.9884 30.283 16.1384 30.283 17.8059V21.505H36.033L35.2855 27.255H30.283V42.1667H40.058C40.3349 42.1667 40.609 42.1122 40.8648 42.0062C41.1206 41.9003 41.3531 41.745 41.5488 41.5492C41.7446 41.3534 41.8999 41.121 42.0059 40.8652C42.1118 40.6094 42.1663 40.3352 42.1663 40.0584V5.94171C42.1663 5.66484 42.1118 5.39068 42.0059 5.13488C41.8999 4.87909 41.7446 4.64667 41.5488 4.45089C41.3531 4.25511 41.1206 4.09982 40.8648 3.99386C40.609 3.88791 40.3349 3.83337 40.058 3.83337Z" fill="white"/>
</svg>
