<svg width="71" height="66" viewBox="0 0 71 66" fill="none" xmlns="http://www.w3.org/2000/svg">
<path d="M21.9286 33C17.9349 33.1228 14.6684 34.6942 12.1292 37.7143H7.17396C5.15243 37.7143 3.45139 37.2171 2.07083 36.2227C0.690278 35.2282 0 33.7734 0 31.8583C0 23.1908 1.52847 18.8571 4.58542 18.8571C4.73333 18.8571 5.26953 19.115 6.19401 19.6306C7.11849 20.1462 8.32031 20.668 9.79948 21.1959C11.2786 21.7238 12.7455 21.9877 14.2 21.9877C15.8517 21.9877 17.4911 21.7054 19.1182 21.1406C18.995 22.0491 18.9333 22.8594 18.9333 23.5714C18.9333 26.9844 19.9318 30.1272 21.9286 33ZM61.5333 56.4609C61.5333 59.4074 60.6335 61.7338 58.8339 63.4403C57.0342 65.1468 54.6429 66 51.6599 66H19.3401C16.3571 66 13.9658 65.1468 12.1661 63.4403C10.3665 61.7338 9.46667 59.4074 9.46667 56.4609C9.46667 55.1596 9.50981 53.889 9.59609 52.649C9.68238 51.409 9.85495 50.0709 10.1138 48.6345C10.3727 47.1981 10.6993 45.8661 11.0937 44.6384C11.4882 43.4107 12.0182 42.2137 12.6839 41.0474C13.3495 39.8811 14.1137 38.8867 14.9766 38.0642C15.8394 37.2416 16.8933 36.5848 18.1383 36.0938C19.3832 35.6027 20.7576 35.3571 22.2615 35.3571C22.508 35.3571 23.038 35.6211 23.8516 36.149C24.6651 36.6769 25.5649 37.2662 26.551 37.9169C27.5372 38.5675 28.8561 39.1568 30.5078 39.6847C32.1595 40.2126 33.8236 40.4766 35.5 40.4766C37.1764 40.4766 38.8405 40.2126 40.4922 39.6847C42.1439 39.1568 43.4628 38.5675 44.449 37.9169C45.4351 37.2662 46.3349 36.6769 47.1484 36.149C47.962 35.6211 48.492 35.3571 48.7385 35.3571C50.2424 35.3571 51.6168 35.6027 52.8617 36.0938C54.1067 36.5848 55.1606 37.2416 56.0234 38.0642C56.8863 38.8867 57.6505 39.8811 58.3161 41.0474C58.9818 42.2137 59.5118 43.4107 59.9062 44.6384C60.3007 45.8661 60.6273 47.1981 60.8862 48.6345C61.1451 50.0709 61.3176 51.409 61.4039 52.649C61.4902 53.889 61.5333 55.1596 61.5333 56.4609ZM23.6667 9.42857C23.6667 12.0312 22.7422 14.2533 20.8932 16.0949C19.0443 17.9364 16.8132 18.8571 14.2 18.8571C11.5868 18.8571 9.35573 17.9364 7.50677 16.0949C5.65781 14.2533 4.73333 12.0312 4.73333 9.42857C4.73333 6.82589 5.65781 4.60379 7.50677 2.76228C9.35573 0.920759 11.5868 0 14.2 0C16.8132 0 19.0443 0.920759 20.8932 2.76228C22.7422 4.60379 23.6667 6.82589 23.6667 9.42857ZM49.7 23.5714C49.7 27.4754 48.3133 30.8086 45.5398 33.5709C42.7664 36.3331 39.4198 37.7143 35.5 37.7143C31.5802 37.7143 28.2336 36.3331 25.4602 33.5709C22.6867 30.8086 21.3 27.4754 21.3 23.5714C21.3 19.6674 22.6867 16.3343 25.4602 13.572C28.2336 10.8097 31.5802 9.42857 35.5 9.42857C39.4198 9.42857 42.7664 10.8097 45.5398 13.572C48.3133 16.3343 49.7 19.6674 49.7 23.5714ZM71 31.8583C71 33.7734 70.3097 35.2282 68.9292 36.2227C67.5486 37.2171 65.8476 37.7143 63.826 37.7143H58.8708C56.3316 34.6942 53.0651 33.1228 49.0714 33C51.0682 30.1272 52.0667 26.9844 52.0667 23.5714C52.0667 22.8594 52.005 22.0491 51.8818 21.1406C53.5089 21.7054 55.1483 21.9877 56.8 21.9877C58.2545 21.9877 59.7214 21.7238 61.2005 21.1959C62.6797 20.668 63.8815 20.1462 64.806 19.6306C65.7305 19.115 66.2667 18.8571 66.4146 18.8571C69.4715 18.8571 71 23.1908 71 31.8583ZM66.2667 9.42857C66.2667 12.0313 65.3422 14.2533 63.4932 16.0949C61.6443 17.9364 59.4132 18.8571 56.8 18.8571C54.1868 18.8571 51.9557 17.9364 50.1068 16.0949C48.2578 14.2533 47.3333 12.0313 47.3333 9.42857C47.3333 6.82589 48.2578 4.60379 50.1068 2.76228C51.9557 0.920759 54.1868 0 56.8 0C59.4132 0 61.6443 0.920759 63.4932 2.76228C65.3422 4.60379 66.2667 6.82589 66.2667 9.42857Z" fill="#D95806"/>
</svg>
